<svg width="86" height="86" viewBox="0 0 86 86" fill="none" xmlns="http://www.w3.org/2000/svg">
<circle cx="43" cy="43" r="42" stroke="#950013" stroke-width="2"/>
<path d="M27.1667 32.2223H55.5128C56.0871 32.2223 56.6551 32.3427 57.1801 32.5757C57.7051 32.8086 58.1755 33.149 58.5609 33.5749C58.9463 34.0007 59.2381 34.5026 59.4177 35.0482C59.5972 35.5938 59.6605 36.1709 59.6033 36.7425L58.37 49.0758C58.2686 50.0902 57.7938 51.0308 57.0379 51.7149C56.282 52.399 55.2989 52.7778 54.2795 52.7778H34.6489C33.6981 52.7782 32.7766 52.4491 32.0413 51.8464C31.306 51.2437 30.8022 50.4048 30.6159 49.4725L27.1667 32.2223Z" stroke="#EDEDED" stroke-width="3" stroke-linejoin="round"/>
<path d="M49.7778 61H53.8889M27.1667 32.2222L25.5017 25.5561C25.3903 25.1115 25.1336 24.717 24.7724 24.4351C24.4111 24.1531 23.966 24 23.5078 24H21L27.1667 32.2222ZM33.3333 61H37.4444H33.3333Z" stroke="#EDEDED" stroke-width="3" stroke-linecap="round" stroke-linejoin="round"/>
</svg>
