<svg width="86" height="86" viewBox="0 0 86 86" fill="none" xmlns="http://www.w3.org/2000/svg">
<circle cx="43" cy="43" r="42" stroke="#950013" stroke-width="2"/>
<path d="M53.1892 23H32.8108C31.2605 23 30 24.2813 30 25.8571V60.1429C30 61.7188 31.2605 63 32.8108 63H53.1892C54.7395 63 56 61.7188 56 60.1429V25.8571C56 24.2813 54.7395 23 53.1892 23ZM52.8378 59.7857H33.1622V26.2143H52.8378V59.7857ZM41.2432 55.2321C41.2432 55.7057 41.4283 56.16 41.7578 56.4948C42.0872 56.8297 42.5341 57.0179 43 57.0179C43.4659 57.0179 43.9128 56.8297 44.2422 56.4948C44.5717 56.16 44.7568 55.7057 44.7568 55.2321C44.7568 54.7585 44.5717 54.3043 44.2422 53.9695C43.9128 53.6346 43.4659 53.4464 43 53.4464C42.5341 53.4464 42.0872 53.6346 41.7578 53.9695C41.4283 54.3043 41.2432 54.7585 41.2432 55.2321Z" fill="#EDEDED"/>
</svg>
