<svg width="86" height="86" viewBox="0 0 86 86" fill="none" xmlns="http://www.w3.org/2000/svg">
<circle cx="43" cy="43" r="42" stroke="#950013" stroke-width="2"/>
<path d="M46.4887 27.9191C46.5437 27.8501 46.612 27.7926 46.6896 27.7499C46.7672 27.7072 46.8526 27.6801 46.9408 27.6702C47.029 27.6603 47.1183 27.6677 47.2036 27.6921C47.2889 27.7166 47.3684 27.7574 47.4377 27.8124L48.8915 28.9671L43.5756 35.668H47.0002L50.9956 30.6336L54.3663 33.3082C54.437 33.3642 54.4955 33.4337 54.5384 33.5126C54.5812 33.5915 54.6076 33.6782 54.6159 33.7674C54.6242 33.8567 54.6142 33.9466 54.5866 34.032C54.559 34.1173 54.5143 34.1963 54.4552 34.2641L53.2329 35.668H56.7517C57.2152 34.9744 57.4001 34.1342 57.2701 33.3125C57.14 32.4908 56.7045 31.7469 56.049 31.2269L49.1204 25.7312C48.7743 25.4568 48.3768 25.2527 47.9508 25.1309C47.5248 25.009 47.0787 24.9718 46.6382 25.0212C46.1976 25.0706 45.7712 25.2058 45.3836 25.4189C44.9959 25.6321 44.6546 25.919 44.3792 26.2632L36.8583 35.668H40.2923L46.4887 27.9191ZM49.2308 47.6674C48.8737 47.6674 48.5313 47.8078 48.2789 48.0579C48.0264 48.3079 47.8846 48.647 47.8846 49.0006C47.8846 49.3542 48.0264 49.6934 48.2789 49.9434C48.5313 50.1934 48.8737 50.3339 49.2308 50.3339H53.2692C53.6263 50.3339 53.9687 50.1934 54.2211 49.9434C54.4736 49.6934 54.6154 49.3542 54.6154 49.0006C54.6154 48.647 54.4736 48.3079 54.2211 48.0579C53.9687 47.8078 53.6263 47.6674 53.2692 47.6674H49.2308ZM29.0385 31.6682C27.9674 31.6682 26.9402 32.0896 26.1828 32.8398C25.4255 33.5899 25 34.6072 25 35.668V55.0003C25 56.5915 25.6382 58.1176 26.7743 59.2427C27.9103 60.3679 29.4511 61 31.0577 61H53.9423C55.5489 61 57.0897 60.3679 58.2257 59.2427C59.3618 58.1176 60 56.5915 60 55.0003V43.001C60 41.4098 59.3618 39.8837 58.2257 38.7586C57.0897 37.6334 55.5489 37.0013 53.9423 37.0013H29.0385C28.6814 37.0013 28.339 36.8608 28.0866 36.6108C27.8341 36.3607 27.6923 36.0216 27.6923 35.668C27.6923 35.3144 27.8341 34.9753 28.0866 34.7253C28.339 34.4752 28.6814 34.3348 29.0385 34.3348H35.2038L37.3523 31.6682H29.0385ZM27.6923 55.0003V39.4412C28.1137 39.5878 28.5673 39.6678 29.0385 39.6678H53.9423C54.8349 39.6678 55.6909 40.019 56.322 40.6441C56.9531 41.2692 57.3077 42.117 57.3077 43.001V55.0003C57.3077 55.8843 56.9531 56.7321 56.322 57.3572C55.6909 57.9823 54.8349 58.3335 53.9423 58.3335H31.0577C30.1651 58.3335 29.3091 57.9823 28.678 57.3572C28.0469 56.7321 27.6923 55.8843 27.6923 55.0003Z" fill="#EDEDED"/>
</svg>
