<svg width="11" height="11" viewBox="0 0 11 11" fill="none" xmlns="http://www.w3.org/2000/svg">
<path d="M10.7762 2.21199C10.7136 1.89782 10.5913 1.61131 10.4214 1.38096C10.2515 1.15062 10.0399 0.984491 9.80781 0.899101C8.94712 0.579428 5.50381 0.574224 5.50381 0.574224C5.50381 0.574224 2.06104 0.56902 1.1998 0.874568C0.967825 0.963888 0.756717 1.13237 0.586747 1.36384C0.416776 1.59531 0.29365 1.882 0.229189 2.19638C0.00219935 3.36058 8.0526e-07 5.77522 8.0526e-07 5.77522C8.0526e-07 5.77522 -0.00219763 8.20176 0.223143 9.35407C0.349554 9.99119 0.720541 10.4945 1.19211 10.6662C2.06159 10.9859 5.49556 10.9911 5.49556 10.9911C5.49556 10.9911 8.93888 10.9963 9.79957 10.6915C10.0318 10.6063 10.2435 10.4405 10.4138 10.2106C10.5842 9.98076 10.7072 9.69473 10.7707 9.38084C10.9983 8.21738 10.9999 5.80347 10.9999 5.80347C10.9999 5.80347 11.0109 3.37619 10.7762 2.21199V2.21199ZM4.40239 8.01219L4.40514 3.55164L7.26696 5.78563L4.40239 8.01219V8.01219Z" fill="white"/>
</svg>
