<svg width="712" height="531" viewBox="0 0 712 531" fill="none" xmlns="http://www.w3.org/2000/svg">
<path d="M708.159 131.979L707.271 126.02L706.348 126.233C700.041 96.7595 685.512 69.6733 664.442 48.1078C643.372 26.5424 616.622 11.3792 587.287 4.37269C557.953 -2.63379 527.232 -1.1972 498.68 8.51627C470.129 18.2297 444.913 35.8231 425.95 59.2606C406.988 82.6982 395.053 111.022 391.528 140.955C388.003 170.888 393.032 201.206 406.032 228.402C419.031 255.598 439.471 278.561 464.987 294.632C490.502 310.703 520.049 319.227 550.21 319.217C558.126 319.217 565.721 318.011 573.281 316.912C570.832 325.14 568.312 333.511 564.266 341.03C560.22 351.955 553.902 361.425 547.619 370.966C542.366 381.287 533.102 388.274 526.287 397.106C519.153 405.689 509.428 411.4 501.726 418.529C494.165 425.978 484.263 429.702 476.383 434.951C468.148 439.668 460.979 444.882 453.312 447.365L434.181 455.239L417.356 462.226L434.536 531L455.725 525.892C462.505 524.19 470.775 522.204 480.181 519.827C489.8 518.054 500.057 513.195 511.486 508.761C522.738 503.689 535.835 500.32 547.974 492.197C560.184 484.465 574.275 478.01 586.698 467.653C598.731 456.977 613.248 447.72 623.967 434.171C635.68 421.473 647.251 408.137 656.231 392.956C666.631 378.485 673.694 362.595 681.148 346.883C687.891 331.17 693.322 315.103 697.759 299.497C706.171 268.213 709.933 238.491 711.389 213.06C712.595 187.593 711.885 166.419 710.395 151.096C709.896 144.697 709.15 138.32 708.159 131.979V131.979ZM317.725 131.979L316.838 126.02L315.915 126.233C309.608 96.7595 295.079 69.6733 274.008 48.1078C252.938 26.5424 226.188 11.3792 196.854 4.37269C167.519 -2.63379 136.798 -1.1972 108.247 8.51627C79.695 18.2297 54.4791 35.8231 35.5165 59.2606C16.5539 82.6982 4.61965 111.022 1.09467 140.955C-2.4303 170.888 2.59804 201.206 15.5979 228.402C28.5978 255.598 49.0378 278.561 74.553 294.632C100.068 310.703 129.616 319.227 159.777 319.217C167.692 319.217 175.288 318.011 182.848 316.912C180.399 325.14 177.879 333.511 173.832 341.03C169.786 351.955 163.468 361.425 157.186 370.966C151.933 381.287 142.669 388.274 135.854 397.106C128.719 405.689 118.994 411.4 111.292 418.529C103.732 425.978 93.8289 429.702 85.9492 434.951C77.7146 439.668 70.5448 444.882 62.8781 447.365L43.7469 455.239C33.0632 459.602 26.9582 462.156 26.9582 462.156L44.1373 530.929L65.3272 525.822C72.1066 524.119 80.3767 522.133 89.7826 519.756C99.4014 517.983 109.659 513.124 121.088 508.69C132.34 503.618 145.437 500.249 157.576 492.126C169.786 484.394 183.877 477.939 196.3 467.582C208.332 456.906 222.849 447.649 233.569 434.1C245.282 421.402 256.853 408.066 265.833 392.885C276.232 378.414 283.296 362.524 290.749 346.812C297.493 331.099 302.924 315.032 307.361 299.426C315.773 268.142 319.535 238.42 320.99 212.989C322.197 187.522 321.487 166.348 319.996 151.025C319.467 144.651 318.709 138.298 317.725 131.979V131.979Z" fill="#1A1A1A"/>
</svg>
