<svg width="86" height="86" viewBox="0 0 86 86" fill="none" xmlns="http://www.w3.org/2000/svg">
<circle cx="43" cy="43" r="42" stroke="#950013" stroke-width="2"/>
<path d="M28.75 28.75H33.5V33.5H28.75V28.75Z" fill="white"/>
<path d="M38.25 24V38.25H24V24H38.25ZM35.875 26.375H26.375V35.875H35.875V26.375ZM33.5 52.5H28.75V57.25H33.5V52.5Z" fill="white"/>
<path d="M38.25 47.75V62H24V47.75H38.25ZM26.375 50.125V59.625H35.875V50.125H26.375ZM52.5 28.75H57.25V33.5H52.5V28.75Z" fill="white"/>
<path d="M47.75 24V38.25H62V24H47.75ZM59.625 26.375V35.875H50.125V26.375H59.625ZM43 26.375V24H45.375V28.75H43V33.5H40.625V26.375H43ZM43 38.25V33.5H45.375V38.25H43ZM38.25 43V40.625H40.625V38.25H43V43H45.375V40.625H57.25V43H47.75V45.375H40.625V43H38.25ZM38.25 43V45.375H28.75V43H26.375V45.375H24V40.625H31.125V43H38.25ZM62 45.375H59.625V40.625H62V45.375ZM59.625 45.375H57.25V50.125H62V47.75H59.625V45.375ZM50.125 45.375H54.875V47.75H52.5V50.125H50.125V45.375ZM54.875 52.5V50.125H52.5V52.5H50.125V54.875H45.375V57.25H52.5V52.5H54.875ZM54.875 52.5H62V54.875H57.25V57.25H54.875V52.5ZM45.375 50.125V52.5H47.75V47.75H40.625V50.125H45.375Z" fill="white"/>
<path d="M40.625 52.5H43V59.625H52.5V62H40.625V52.5ZM62 57.25V62H54.875V59.625H59.625V57.25H62Z" fill="white"/>
</svg>
