<svg width="17" height="11" viewBox="0 0 17 11" fill="none" xmlns="http://www.w3.org/2000/svg">
<path d="M17 7.73022C17 9.53046 15.8095 10.9911 14.3423 10.9911H13.2786C12.9851 10.9911 12.7483 10.7006 12.7483 10.3406C12.7483 9.98051 12.9851 9.69001 13.2786 9.69001H14.3423C15.2227 9.69001 15.9363 8.81444 15.9363 7.73429C15.9363 6.65414 15.2226 5.77859 14.3423 5.77859H14.3356C13.6454 5.77859 13.0551 5.23851 12.835 4.48568C12.835 4.48159 12.8283 4.4775 12.8283 4.46932C12.4149 3.04139 11.3444 1.99398 10.0606 1.87942C9.78382 1.89988 9.56373 2.18217 9.56373 2.52585V10.3365C9.56373 10.6965 9.32697 10.987 9.03353 10.987C8.74008 10.987 8.50332 10.6965 8.50332 10.3365V2.52585C8.50332 1.45388 9.20693 0.586473 10.0773 0.574219C11.8113 0.696963 13.2652 2.09215 13.8254 4.01514C13.8287 4.01924 13.8321 4.02333 13.8354 4.02333C13.9055 4.28518 14.1055 4.47339 14.339 4.47339H14.3456C14.3756 4.47339 14.4056 4.47748 14.4323 4.47748H14.449C15.8662 4.54704 17 5.97496 17 7.7302V7.73022ZM6.90604 10.9911C6.61259 10.9911 6.37583 10.7006 6.37583 10.3406V3.16821C6.37583 2.80816 6.61259 2.51767 6.90604 2.51767C7.19949 2.51767 7.43625 2.80816 7.43625 3.16821V10.3406C7.43625 10.6965 7.19949 10.9911 6.90604 10.9911ZM4.77856 10.9911C4.48511 10.9911 4.24835 10.7006 4.24835 10.3405V2.84087C4.24835 2.48082 4.48511 2.19033 4.77856 2.19033C5.07201 2.19033 5.30877 2.48082 5.30877 2.84087V10.3364C5.3121 10.6965 5.07201 10.9911 4.77856 10.9911ZM2.65437 10.9911C2.36093 10.9911 2.12417 10.7005 2.12417 10.3405V5.12389C2.12417 4.76384 2.36093 4.47335 2.65437 4.47335C2.94782 4.47335 3.18458 4.76384 3.18458 5.12389V10.3405C3.18458 10.6965 2.94782 10.9911 2.65437 10.9911ZM0.530208 9.68586C0.236759 9.68586 0 9.39536 0 9.03532V6.42905C0 6.069 0.236759 5.77851 0.530208 5.77851C0.823656 5.77851 1.06042 6.069 1.06042 6.42905V9.03532C1.06042 9.39536 0.823656 9.68586 0.530208 9.68586ZM11.1544 9.68586C11.4478 9.68586 11.6846 9.97635 11.6846 10.3364C11.6846 10.6965 11.4478 10.9869 11.1544 10.9869C10.8609 10.9869 10.6242 10.6965 10.6242 10.3364C10.6242 9.97635 10.8609 9.68586 11.1544 9.68586Z" fill="white"/>
</svg>
