<svg width="11" height="14" viewBox="0 0 11 14" fill="none" xmlns="http://www.w3.org/2000/svg">
<path fill-rule="evenodd" clip-rule="evenodd" d="M4.08595 4.85337H6.12865V6.03105C6.4229 5.35373 7.1775 4.74515 8.31105 4.74515C10.4841 4.74515 11 6.09344 11 8.56722V13.1487H8.8V9.1306C8.8 7.72183 8.50575 6.92737 7.75665 6.92737C6.7177 6.92737 6.28595 7.78358 6.28595 9.12996V13.1487H4.08595V4.85337V4.85337ZM0.3135 13.0405H2.5135V4.74515H0.3135V13.0405V13.0405ZM2.82865 2.04029C2.82873 2.25372 2.79216 2.46504 2.72106 2.66197C2.64997 2.8589 2.54576 3.03751 2.4145 3.18742C2.14852 3.49338 1.7885 3.66464 1.4135 3.66359C1.03916 3.6633 0.679971 3.49247 0.4136 3.18806C0.282816 3.03764 0.178962 2.85883 0.107989 2.66187C0.0370158 2.46492 0.000318523 2.25369 0 2.04029C0 1.60932 0.1485 1.19681 0.41415 0.892523C0.680287 0.587698 1.03963 0.416802 1.41405 0.416992C1.78915 0.416992 2.14885 0.588234 2.4145 0.892523C2.6796 1.19681 2.82865 1.60932 2.82865 2.04029Z" fill="white"/>
</svg>
