<svg width="86" height="86" viewBox="0 0 86 86" fill="none" xmlns="http://www.w3.org/2000/svg">
<circle cx="43" cy="43" r="42" stroke="#950013" stroke-width="2"/>
<path d="M63 60.05L59.1 56.15C59.7964 55.0357 60.2143 53.6429 60.2143 52.25C60.2143 48.35 57.15 45.2857 53.25 45.2857C49.35 45.2857 46.2857 48.35 46.2857 52.25C46.2857 56.15 49.35 59.2143 53.25 59.2143C54.6429 59.2143 56.0357 58.7965 57.15 58.1L61.05 62L63 60.05ZM49.0714 52.25C49.0714 49.8822 50.8821 48.0715 53.25 48.0715C55.6179 48.0715 57.4286 49.8822 57.4286 52.25C57.4286 54.6179 55.6179 56.4286 53.25 56.4286C50.8821 56.4286 49.0714 54.6179 49.0714 52.25ZM32.3571 42.5H46.2857V45.2857H32.3571V42.5ZM32.3571 34.1429H49.0714V36.9286H32.3571V34.1429Z" fill="#EDEDED"/>
<path d="M40.7143 58.7964L33.4714 54.8964C29.2929 52.8071 26.7857 48.4893 26.7857 43.8929V25.7857H54.6429V41.1071H57.4286V25.7857C57.4286 24.2536 56.175 23 54.6429 23H26.7857C25.2536 23 24 24.2536 24 25.7857V43.8929C24 49.6036 27.0643 54.7571 32.0786 57.4036L40.7143 62V58.7964Z" fill="#EDEDED"/>
</svg>
