<svg width="86" height="86" viewBox="0 0 86 86" fill="none" xmlns="http://www.w3.org/2000/svg">
<circle cx="43" cy="43" r="42" stroke="#950013" stroke-width="2"/>
<path d="M34.9386 45.5514C35.3564 45.6531 35.7843 45.7077 36.2143 45.7143C37.2924 45.714 38.3459 45.3927 39.2407 44.7914L43.6107 48.6864C43.2645 49.3438 43.0614 50.067 43.0146 50.8085C42.9678 51.5499 43.0785 52.2929 43.3393 52.9886C43.6132 53.7768 44.0652 54.4912 44.6601 55.0764C45.255 55.6616 45.9768 56.1018 46.7694 56.3627C47.5621 56.6237 48.4042 56.6984 49.2304 56.581C50.0565 56.4637 50.8445 56.1574 51.5332 55.6861C52.2218 55.2148 52.7925 54.591 53.2009 53.8634C53.6093 53.1357 53.8445 52.3236 53.8881 51.4903C53.9318 50.6569 53.7827 49.8248 53.4525 49.0584C53.1223 48.292 52.6199 47.6121 51.9843 47.0714L55.4314 40.1636C56.1043 40.3153 56.8008 40.3298 57.4793 40.2063C58.1579 40.0827 58.8046 39.8235 59.3807 39.4443C60.3591 38.8472 61.1234 37.9558 61.5641 36.8977C62.0047 35.8396 62.0992 34.6692 61.834 33.5541C61.5687 32.4391 60.9573 31.4366 60.0874 30.6903C59.2174 29.944 58.1336 29.4922 56.9912 29.3996C55.8487 29.3071 54.7063 29.5785 53.7276 30.175C52.7489 30.7715 51.984 31.6625 51.5427 32.7203C51.1014 33.7781 51.0062 34.9485 51.2708 36.0637C51.5354 37.1789 52.1462 38.1818 53.0157 38.9286L49.5686 45.8364C49.1942 45.7541 48.8119 45.7132 48.4286 45.7143C47.3505 45.7146 46.2969 46.0358 45.4021 46.6371L41.0321 42.7421C41.3783 42.0848 41.5815 41.3616 41.6283 40.6201C41.675 39.8786 41.5644 39.1357 41.3036 38.44C41.0316 37.6575 40.5842 36.9476 39.9956 36.3647C39.407 35.7818 38.6928 35.3414 37.9077 35.0771C37.1226 34.8128 36.2874 34.7317 35.4661 34.84C34.6448 34.9483 33.8592 35.2431 33.1694 35.7019C32.4797 36.1607 31.9041 36.7712 31.4867 37.4868C31.0693 38.2024 30.8212 39.0039 30.7614 39.8302C30.7016 40.6564 30.8317 41.4854 31.1417 42.2536C31.4518 43.0218 31.9335 43.7088 32.55 44.2621L26.7143 55.2143V24H24V59.2857C24 60.0056 24.286 60.696 24.795 61.205C25.304 61.714 25.9944 62 26.7143 62H62V59.2857H27.6236L34.9386 45.5514ZM56.5714 32.1429C57.1083 32.1429 57.633 32.302 58.0794 32.6003C58.5258 32.8985 58.8737 33.3225 59.0791 33.8184C59.2845 34.3144 59.3383 34.8602 59.2336 35.3867C59.1288 35.9132 58.8703 36.3968 58.4907 36.7764C58.1111 37.156 57.6275 37.4145 57.101 37.5193C56.5744 37.624 56.0287 37.5703 55.5327 37.3648C55.0367 37.1594 54.6128 36.8115 54.3146 36.3651C54.0163 35.9188 53.8571 35.394 53.8571 34.8571C53.8571 34.1373 54.1431 33.4469 54.6521 32.9379C55.1612 32.4288 55.8516 32.1429 56.5714 32.1429ZM51.1429 51.1429C51.1429 51.6797 50.9837 52.2045 50.6854 52.6508C50.3872 53.0972 49.9633 53.4451 49.4673 53.6505C48.9713 53.856 48.4256 53.9097 47.899 53.805C47.3725 53.7003 46.8889 53.4417 46.5093 53.0621C46.1297 52.6825 45.8712 52.1989 45.7664 51.6724C45.6617 51.1459 45.7155 50.6001 45.9209 50.1041C46.1263 49.6082 46.4742 49.1843 46.9206 48.886C47.367 48.5878 47.8917 48.4286 48.4286 48.4286C49.1484 48.4286 49.8388 48.7145 50.3479 49.2236C50.8569 49.7326 51.1429 50.423 51.1429 51.1429ZM36.2143 37.5714C36.7511 37.5714 37.2759 37.7306 37.7223 38.0289C38.1686 38.3271 38.5165 38.751 38.722 39.247C38.9274 39.743 38.9811 40.2887 38.8764 40.8152C38.7717 41.3418 38.5132 41.8254 38.1336 42.205C37.754 42.5846 37.2703 42.8431 36.7438 42.9478C36.2173 43.0526 35.6715 42.9988 35.1756 42.7934C34.6796 42.5879 34.2557 42.2401 33.9574 41.7937C33.6592 41.3473 33.5 40.8225 33.5 40.2857C33.5 39.5658 33.786 38.8755 34.295 38.3664C34.804 37.8574 35.4944 37.5714 36.2143 37.5714Z" fill="#EDEDED"/>
</svg>
