<svg width="11" height="14" viewBox="0 0 11 14" fill="none" xmlns="http://www.w3.org/2000/svg">
<path fill-rule="evenodd" clip-rule="evenodd" d="M3.2325 0.455187C3.819 0.423937 4.006 0.416992 5.5 0.416992C6.994 0.416992 7.181 0.424515 7.767 0.455187C8.353 0.485859 8.753 0.594079 9.103 0.750911C9.4695 0.911215 9.802 1.1618 10.077 1.48588C10.357 1.80359 10.573 2.18786 10.711 2.61264C10.847 3.01774 10.94 3.48071 10.967 4.15781C10.994 4.8378 11 5.05424 11 6.78286C11 8.51207 10.9935 8.72851 10.967 9.40734C10.9405 10.0844 10.847 10.5474 10.711 10.9525C10.573 11.3773 10.3566 11.7622 10.077 12.0804C9.802 12.4045 9.4695 12.6545 9.103 12.8142C8.753 12.9716 8.353 13.0793 7.768 13.1105C7.181 13.1418 6.994 13.1487 5.5 13.1487C4.006 13.1487 3.819 13.1412 3.2325 13.1105C2.6475 13.0799 2.2475 12.9716 1.8975 12.8142C1.53046 12.6545 1.19791 12.4041 0.923 12.0804C0.64319 11.7625 0.426657 11.3778 0.2885 10.9531C0.153 10.548 0.06 10.085 0.033 9.40792C0.00599999 8.72793 0 8.51149 0 6.78286C0 5.05366 0.00649999 4.83722 0.033 4.15897C0.0595 3.48071 0.153 3.01774 0.2885 2.61264C0.426861 2.18791 0.643559 1.8032 0.9235 1.4853C1.19802 1.16151 1.53024 0.910893 1.897 0.750911C2.247 0.594079 2.647 0.486438 3.232 0.455187H3.2325ZM7.7225 1.60104C7.1425 1.57037 6.9685 1.56401 5.5 1.56401C4.0315 1.56401 3.8575 1.57037 3.2775 1.60104C2.741 1.6294 2.45 1.73299 2.256 1.82038C1.9995 1.93612 1.816 2.07328 1.6235 2.29608C1.44102 2.50156 1.30059 2.75169 1.2125 3.02816C1.137 3.2527 1.0475 3.58951 1.023 4.21047C0.9965 4.88178 0.991 5.08318 0.991 6.78286C0.991 8.48255 0.9965 8.68394 1.023 9.35525C1.0475 9.97622 1.137 10.313 1.2125 10.5376C1.3005 10.8136 1.441 11.0642 1.6235 11.2696C1.801 11.4809 2.0175 11.6435 2.256 11.7453C2.45 11.8327 2.741 11.9363 3.2775 11.9647C3.8575 11.9954 4.031 12.0017 5.5 12.0017C6.969 12.0017 7.1425 11.9954 7.7225 11.9647C8.259 11.9363 8.55 11.8327 8.744 11.7453C9.0005 11.6296 9.184 11.4925 9.3765 11.2696C9.559 11.0642 9.6995 10.8136 9.7875 10.5376C9.863 10.313 9.9525 9.97622 9.977 9.35525C10.0035 8.68394 10.009 8.48255 10.009 6.78286C10.009 5.08318 10.0035 4.88178 9.977 4.21047C9.9525 3.58951 9.863 3.2527 9.7875 3.02816C9.6875 2.73128 9.569 2.51889 9.3765 2.29608C9.19896 2.08489 8.98285 1.92235 8.744 1.82038C8.55 1.73299 8.259 1.6294 7.7225 1.60104V1.60104ZM4.7975 8.74529C5.18983 8.93431 5.62669 8.95983 6.03346 8.81747C6.44024 8.67511 6.7917 8.3737 7.0278 7.96474C7.26391 7.55578 7.37003 7.06462 7.32802 6.57517C7.28602 6.08571 7.0985 5.62831 6.7975 5.2811C6.60562 5.05915 6.37361 4.8892 6.11817 4.78349C5.86273 4.67777 5.59021 4.63893 5.32025 4.66975C5.05028 4.70057 4.78958 4.80029 4.5569 4.96172C4.32423 5.12316 4.12537 5.34229 3.97465 5.60335C3.82393 5.86442 3.72509 6.16091 3.68526 6.47149C3.64542 6.78207 3.66558 7.09901 3.74427 7.39949C3.82296 7.69998 3.95824 7.97653 4.14036 8.20924C4.32248 8.44194 4.54691 8.62502 4.7975 8.74529ZM3.501 4.46916C3.76351 4.16532 4.07516 3.9243 4.41815 3.75986C4.76114 3.59543 5.12875 3.51079 5.5 3.51079C5.87125 3.51079 6.23886 3.59543 6.58185 3.75986C6.92484 3.9243 7.23649 4.16532 7.499 4.46916C7.76151 4.773 7.96975 5.13371 8.11182 5.5307C8.25389 5.92768 8.32701 6.35317 8.32701 6.78286C8.32701 7.21256 8.25389 7.63805 8.11182 8.03503C7.96975 8.43202 7.76151 8.79273 7.499 9.09657C6.96883 9.7102 6.24977 10.0549 5.5 10.0549C4.75023 10.0549 4.03117 9.7102 3.501 9.09657C2.97083 8.48294 2.67299 7.65067 2.67299 6.78286C2.67299 5.91506 2.97083 5.08279 3.501 4.46916V4.46916ZM8.954 3.99808C9.01905 3.92706 9.07113 3.84165 9.10715 3.74691C9.14317 3.65217 9.16241 3.55002 9.16371 3.44653C9.16501 3.34303 9.14836 3.24028 9.11474 3.14437C9.08112 3.04845 9.03122 2.96132 8.96798 2.88813C8.90474 2.81494 8.82946 2.75718 8.7466 2.71826C8.66373 2.67935 8.57495 2.66008 8.48553 2.66159C8.39612 2.6631 8.30787 2.68536 8.22601 2.72705C8.14416 2.76874 8.07037 2.82902 8.009 2.90431C7.88966 3.05074 7.82432 3.24525 7.82685 3.44653C7.82939 3.64781 7.8996 3.84002 8.02258 3.98237C8.14556 4.12471 8.31163 4.20598 8.48553 4.20891C8.65944 4.21184 8.82749 4.13622 8.954 3.99808V3.99808Z" fill="white"/>
</svg>
