<svg width="86" height="86" viewBox="0 0 86 86" fill="none" xmlns="http://www.w3.org/2000/svg">
<circle cx="43" cy="43" r="42" stroke="#950013" stroke-width="2"/>
<path d="M30.7857 24C28.986 24 27.2601 24.7149 25.9875 25.9875C24.7149 27.2601 24 28.986 24 30.7857V55.2143C24 57.014 24.7149 58.7399 25.9875 60.0125C27.2601 61.2851 28.986 62 30.7857 62H55.2143C57.014 62 58.7399 61.2851 60.0125 60.0125C61.2851 58.7399 62 57.014 62 55.2143V30.7857C62 28.986 61.2851 27.2601 60.0125 25.9875C58.7399 24.7149 57.014 24 55.2143 24H30.7857ZM26.7143 30.7857C26.7143 29.7059 27.1432 28.6703 27.9068 27.9068C28.6703 27.1432 29.7059 26.7143 30.7857 26.7143H55.2143C56.2941 26.7143 57.3297 27.1432 58.0932 27.9068C58.8568 28.6703 59.2857 29.7059 59.2857 30.7857V55.2143C59.2857 56.2941 58.8568 57.3297 58.0932 58.0932C57.3297 58.8568 56.2941 59.2857 55.2143 59.2857H30.7857C29.7059 59.2857 28.6703 58.8568 27.9068 58.0932C27.1432 57.3297 26.7143 56.2941 26.7143 55.2143V30.7857ZM32.1429 41.6429C32.1429 41.2829 32.2858 40.9377 32.5404 40.6832C32.7949 40.4287 33.1401 40.2857 33.5 40.2857C33.8599 40.2857 34.2051 40.4287 34.4596 40.6832C34.7142 40.9377 34.8571 41.2829 34.8571 41.6429C34.8571 42.0028 34.7142 42.348 34.4596 42.6025C34.2051 42.857 33.8599 43 33.5 43C33.1401 43 32.7949 42.857 32.5404 42.6025C32.2858 42.348 32.1429 42.0028 32.1429 41.6429ZM33.5 37.5714C32.4202 37.5714 31.3846 38.0004 30.6211 38.7639C29.8575 39.5275 29.4286 40.563 29.4286 41.6429C29.4286 42.7227 29.8575 43.7583 30.6211 44.5218C31.3846 45.2853 32.4202 45.7143 33.5 45.7143C34.5798 45.7143 35.6154 45.2853 36.3789 44.5218C37.1425 43.7583 37.5714 42.7227 37.5714 41.6429C37.5714 40.563 37.1425 39.5275 36.3789 38.7639C35.6154 38.0004 34.5798 37.5714 33.5 37.5714ZM40.2857 41.6429C40.2857 41.2829 40.4287 40.9377 40.6832 40.6832C40.9377 40.4287 41.2829 40.2857 41.6429 40.2857H55.2143C55.5742 40.2857 55.9194 40.4287 56.1739 40.6832C56.4284 40.9377 56.5714 41.2829 56.5714 41.6429C56.5714 42.0028 56.4284 42.348 56.1739 42.6025C55.9194 42.857 55.5742 43 55.2143 43H41.6429C41.2829 43 40.9377 42.857 40.6832 42.6025C40.4287 42.348 40.2857 42.0028 40.2857 41.6429ZM32.1429 52.5C32.1429 52.1401 32.2858 51.7949 32.5404 51.5404C32.7949 51.2858 33.1401 51.1429 33.5 51.1429C33.8599 51.1429 34.2051 51.2858 34.4596 51.5404C34.7142 51.7949 34.8571 52.1401 34.8571 52.5C34.8571 52.8599 34.7142 53.2051 34.4596 53.4596C34.2051 53.7142 33.8599 53.8571 33.5 53.8571C33.1401 53.8571 32.7949 53.7142 32.5404 53.4596C32.2858 53.2051 32.1429 52.8599 32.1429 52.5ZM33.5 48.4286C32.4202 48.4286 31.3846 48.8575 30.6211 49.6211C29.8575 50.3846 29.4286 51.4202 29.4286 52.5C29.4286 53.5798 29.8575 54.6154 30.6211 55.3789C31.3846 56.1425 32.4202 56.5714 33.5 56.5714C34.5798 56.5714 35.6154 56.1425 36.3789 55.3789C37.1425 54.6154 37.5714 53.5798 37.5714 52.5C37.5714 51.4202 37.1425 50.3846 36.3789 49.6211C35.6154 48.8575 34.5798 48.4286 33.5 48.4286ZM29.4286 30.7857C29.4286 30.4258 29.5716 30.0806 29.8261 29.8261C30.0806 29.5716 30.4258 29.4286 30.7857 29.4286H55.2143C55.5742 29.4286 55.9194 29.5716 56.1739 29.8261C56.4284 30.0806 56.5714 30.4258 56.5714 30.7857C56.5714 31.1457 56.4284 31.4908 56.1739 31.7454C55.9194 31.9999 55.5742 32.1429 55.2143 32.1429H30.7857C30.4258 32.1429 30.0806 31.9999 29.8261 31.7454C29.5716 31.4908 29.4286 31.1457 29.4286 30.7857ZM41.6429 51.1429C41.2829 51.1429 40.9377 51.2858 40.6832 51.5404C40.4287 51.7949 40.2857 52.1401 40.2857 52.5C40.2857 52.8599 40.4287 53.2051 40.6832 53.4596C40.9377 53.7142 41.2829 53.8571 41.6429 53.8571H55.2143C55.5742 53.8571 55.9194 53.7142 56.1739 53.4596C56.4284 53.2051 56.5714 52.8599 56.5714 52.5C56.5714 52.1401 56.4284 51.7949 56.1739 51.5404C55.9194 51.2858 55.5742 51.1429 55.2143 51.1429H41.6429Z" fill="#EDEDED"/>
</svg>
