<svg width="86" height="86" viewBox="0 0 86 86" fill="none" xmlns="http://www.w3.org/2000/svg">
<circle cx="43" cy="43" r="42" stroke="#950013" stroke-width="2"/>
<path fill-rule="evenodd" clip-rule="evenodd" d="M56.8548 24H42.0472L41.0387 24.4254L22 43.8402V45.8999L36.8076 61H38.8274L45.1556 54.5469C47.0038 55.5412 49.0627 56.059 51.1524 56.055C53.2421 56.0509 55.299 55.5251 57.1435 54.5236C58.988 53.522 60.564 52.0752 61.7338 50.3094C62.9036 48.5436 63.6316 46.5125 63.8543 44.3937C63.9314 43.9101 63.98 43.4265 64 42.937C63.998 40.782 63.4756 38.6607 62.4791 36.7604C61.4826 34.8601 60.0425 33.2392 58.2861 32.0409V25.4567L56.8576 24H56.8548ZM55.4263 30.5813C54.0501 30.0837 52.601 29.8285 51.1409 29.8268C50.762 29.8268 50.3987 29.9802 50.1308 30.2534C49.8629 30.5266 49.7124 30.8971 49.7124 31.2835C49.7124 31.6698 49.8629 32.0403 50.1308 32.3135C50.3987 32.5867 50.762 32.7402 51.1409 32.7402C52.6233 32.7404 54.0871 33.0768 55.4263 33.7249V39.9537L44.2128 51.3858C43.9469 51.526 43.7303 51.7469 43.5928 52.018L37.8161 57.9089L25.0312 44.8686L42.6386 26.9134H55.4263V30.5813ZM58.2832 35.8021C60.1142 37.7077 61.1398 40.2692 61.1402 42.937C61.1265 43.4255 61.0778 43.9124 60.9945 44.3937C60.783 45.9311 60.2289 47.3986 59.3746 48.6836C58.5202 49.9686 57.3885 51.0368 56.0662 51.8062C54.744 52.5756 53.2664 53.0257 51.747 53.1221C50.2275 53.2184 48.7066 52.9583 47.3011 52.3618L57.8661 41.5881L58.2832 40.5568V35.8021Z" fill="#EDEDED"/>
</svg>
