<svg width="86" height="86" viewBox="0 0 86 86" fill="none" xmlns="http://www.w3.org/2000/svg">
<circle cx="43" cy="43" r="42" stroke="#950013" stroke-width="2"/>
<path d="M53.1892 24H32.8108C31.2605 24 30 25.2172 30 26.7143V59.2857C30 60.7828 31.2605 62 32.8108 62H53.1892C54.7395 62 56 60.7828 56 59.2857V26.7143C56 25.2172 54.7395 24 53.1892 24ZM52.8378 58.9464H33.1622V27.0536H52.8378V58.9464ZM41.2432 54.6205C41.2432 55.0705 41.4283 55.5019 41.7578 55.8201C42.0872 56.1382 42.5341 56.317 43 56.317C43.4659 56.317 43.9128 56.1382 44.2422 55.8201C44.5717 55.5019 44.7568 55.0705 44.7568 54.6205C44.7568 54.1706 44.5717 53.7391 44.2422 53.421C43.9128 53.1028 43.4659 52.9241 43 52.9241C42.5341 52.9241 42.0872 53.1028 41.7578 53.421C41.4283 53.7391 41.2432 54.1706 41.2432 54.6205Z" fill="#EDEDED"/>
</svg>
