<svg width="86" height="86" viewBox="0 0 86 86" fill="none" xmlns="http://www.w3.org/2000/svg">
<circle cx="43" cy="43" r="42" stroke="#950013" stroke-width="2"/>
<path d="M59.6463 26.3513C59.8138 26.5191 59.9283 26.7324 59.9757 26.9647C60.023 27.197 60.001 27.4381 59.9125 27.658L45.8331 62.8596C45.7091 63.1696 45.5019 63.4393 45.2344 63.6392C44.9669 63.839 44.6495 63.9611 44.317 63.9921C43.9846 64.0232 43.65 63.9619 43.3502 63.815C43.0504 63.6681 42.7968 63.4413 42.6176 63.1596L34.9282 51.0725L22.8426 43.3822C22.5603 43.2031 22.3329 42.9495 22.1856 42.6493C22.0383 42.3491 21.9768 42.0141 22.0078 41.6812C22.0389 41.3482 22.1613 41.0304 22.3615 40.7626C22.5618 40.4948 22.8321 40.2876 23.1426 40.1638L58.3398 26.0875C58.5597 25.999 58.8007 25.977 59.033 26.0243C59.2653 26.0717 59.4786 26.1862 59.6463 26.3537V26.3513ZM37.343 50.3659L44.0233 60.8632L55.475 32.2315L37.343 50.3659ZM53.7644 30.5207L25.1363 41.9738L35.6348 48.6526L53.7668 30.5207H53.7644Z" fill="#EDEDED"/>
</svg>
