<svg width="86" height="86" viewBox="0 0 86 86" fill="none" xmlns="http://www.w3.org/2000/svg">
<circle cx="43" cy="43" r="42" stroke="#950013" stroke-width="2"/>
<path d="M27.1666 32.2222H55.5127C56.0871 32.2222 56.6551 32.3426 57.1801 32.5755C57.7051 32.8085 58.1754 33.1489 58.5608 33.5748C58.9462 34.0006 59.2381 34.5025 59.4177 35.0481C59.5972 35.5937 59.6604 36.1708 59.6033 36.7423L58.37 49.0757C58.2685 50.0901 57.7938 51.0307 57.0379 51.7148C56.282 52.3988 55.2989 52.7777 54.2794 52.7777H34.6488C33.6981 52.7781 32.7766 52.4489 32.0413 51.8463C31.3059 51.2436 30.8022 50.4047 30.6158 49.4724L27.1666 32.2222Z" stroke="#EDEDED" stroke-width="3" stroke-linejoin="round"/>
<path d="M49.7778 61H53.8889M27.1667 32.2222L25.5017 25.5561C25.3903 25.1115 25.1336 24.717 24.7724 24.4351C24.4111 24.1531 23.966 24 23.5078 24H21L27.1667 32.2222ZM33.3333 61H37.4444H33.3333Z" stroke="#EDEDED" stroke-width="3" stroke-linecap="round" stroke-linejoin="round"/>
</svg>
