<svg width="86" height="86" viewBox="0 0 86 86" fill="none" xmlns="http://www.w3.org/2000/svg">
<circle cx="43" cy="43" r="42" stroke="#950013" stroke-width="2"/>
<path d="M59.3636 27H26.6364C24.6364 27 23 28.6018 23 30.5595V35.881C23 36.8598 23.8182 37.6607 24.8182 37.6607C25.8182 37.6607 26.6364 36.8598 26.6364 35.881V32.3037C26.6364 31.3248 27.4545 30.5239 28.4545 30.5239H57.5455C58.5455 30.5239 59.3636 31.3248 59.3636 32.3037V53.7141C59.3636 54.693 58.5455 55.4939 57.5455 55.4939H28.4545C27.4545 55.4939 26.6364 54.693 26.6364 53.7141V50.119C26.6364 49.1402 25.8182 48.3393 24.8182 48.3393C23.8182 48.3393 23 49.1402 23 50.119V55.4761C23 57.416 24.6182 59 26.6 59H59.3636C61.3636 59 63 57.3982 63 55.4405V30.5595C63 28.6018 61.3636 27 59.3636 27ZM42.7273 48.6062L47.8 43.6407C48.1636 43.2848 48.1636 42.733 47.8 42.3771L42.7273 37.4116C42.6019 37.2853 42.4408 37.1986 42.2646 37.1629C42.0885 37.1271 41.9054 37.1438 41.7391 37.2108C41.5728 37.2779 41.4308 37.3922 41.3314 37.539C41.2321 37.6858 41.18 37.8584 41.1818 38.0345V41.2202H24.8182C23.8182 41.2202 23 42.0211 23 43C23 43.9789 23.8182 44.7798 24.8182 44.7798H41.1818V47.9655C41.1818 48.7664 42.1636 49.158 42.7273 48.6062Z" fill="#EDEDED"/>
</svg>
